# xmcd
#
# Track frame offsets: 
#        150
#        7777
#        26524
#        60865
#        78696
#        91232
#        106283
#        119477
#        133628
#        155172
#        169477
#        184241
#
# Disc length: 2639 seconds
#
# Revision: 0
# Processed by: cddbd v1.5.2PL0 Copyright (c) Steve Scherf et al.
# Submitted via: ExactAudioCopy v0.95a5
#
DISCID=960a4d0c
DTITLE=Jimmy Ågren - Various Phobias
DYEAR=2008
DGENRE=Blues
TTITLE0=Smokin' France
TTITLE1=Little Devil
TTITLE2=Light Show Bob
TTITLE3=Blow Me Hard
TTITLE4=Jeff's House
TTITLE5=Goodnight Austin, Texas
TTITLE6=554023
TTITLE7=Waitin'
TTITLE8=Various Phobias
TTITLE9=Durham Takeoff
TTITLE10=They Don't Care
TTITLE11=Mud Driller
EXTD=
EXTT0=
EXTT1=
EXTT2=
EXTT3=
EXTT4=
EXTT5=
EXTT6=
EXTT7=
EXTT8=
EXTT9=
EXTT10=
EXTT11=
PLAYORDER=
